<?xml version="1.0" encoding="UTF-8"?>
<svg version="1.1" xmlns="http://www.w3.org/2000/svg" width="1741" height="1927">
<path d="M0 0 C2.62183524 0.00282152 5.24367839 0.00123588 7.86550903 -0.00442505 C13.50475155 -0.00965846 19.14283349 0.0216051 24.78178406 0.07795334 C32.93445945 0.15936722 41.086576 0.18528186 49.23961383 0.19783325 C62.46832861 0.2196976 75.69642533 0.28618594 88.92480469 0.38085938 C101.77177853 0.47270731 114.61858425 0.5434628 127.46582031 0.5859375 C128.25825935 0.58856473 129.05069838 0.59119197 129.86715072 0.59389882 C133.84274755 0.60694958 137.81834556 0.61958657 141.79394436 0.63201785 C174.75435549 0.73561659 207.71400899 0.91168681 240.67382812 1.13525391 C237.28468059 4.56801571 233.88919425 7.64941452 230.04882812 10.57275391 C229.21955811 11.20455566 229.21955811 11.20455566 228.37353516 11.84912109 C221.02598426 17.42229746 213.58100686 22.86596233 206.14550781 28.32080078 C201.36624329 31.82924546 196.59501275 35.34861439 191.82446289 38.86889648 C187.7366254 41.88408406 183.64233977 44.88987333 179.53710938 47.88134766 C178.69148438 48.49945312 177.84585937 49.11755859 176.97460938 49.75439453 C175.3739606 50.9240994 173.7712568 52.09100004 172.16601562 53.25439453 C151.9077033 68.08319433 140.94712383 88.78084036 136.36132812 113.32275391 C132.89732595 140.20207849 137.39624001 166.98352215 153.99462891 188.87744141 C164.51465629 202.30320955 177.02383427 212.51455706 191.67382812 221.13525391 C192.2585791 221.48185059 192.84333008 221.82844727 193.44580078 222.18554688 C230.44530977 243.80837274 276.74508274 249.66310442 318.18554688 239.36572266 C345.35902488 232.135542 370.84705198 217.71276662 394.67382812 203.13525391 C395.63530762 202.55195312 396.59678711 201.96865234 397.58740234 201.36767578 C419.39371558 188.10850585 440.56122287 173.8005223 461.13476562 158.70166016 C461.74545898 158.2648291 462.35615234 157.82799805 462.98535156 157.37792969 C464.52612506 156.2439596 465.99928935 155.01956455 467.46289062 153.78759766 C472.22765112 151.33565886 476.41746877 151.89910713 481.67382812 152.13525391 C483.23544678 152.1067334 483.23544678 152.1067334 484.82861328 152.07763672 C497.3139285 151.85025824 508.20658196 152.56995312 517.66288757 161.36578369 C522.6867845 166.30854243 527.22168054 171.67892327 531.67382812 177.13525391 C536.86937393 183.29267967 542.43322914 188.98534369 548.17382812 194.63525391 C553.26343739 199.6444586 558.20387413 204.67548172 562.85546875 210.09423828 C566.442255 214.12022285 570.33235635 217.85446889 574.17382812 221.63525391 C579.26343739 226.6444586 584.20387413 231.67548172 588.85546875 237.09423828 C592.442255 241.12022285 596.33235635 244.85446889 600.17382812 248.63525391 C605.26343739 253.6444586 610.20387413 258.67548172 614.85546875 264.09423828 C618.442255 268.12022285 622.33235635 271.85446889 626.17382812 275.63525391 C631.26343739 280.6444586 636.20387413 285.67548172 640.85546875 291.09423828 C644.442255 295.12022285 648.33235635 298.85446889 652.17382812 302.63525391 C661.27120141 311.58890881 661.27120141 311.58890881 665.14257812 316.10400391 C669.38570858 321.04693056 674.03566539 325.56631748 678.67382812 330.13525391 C683.92390728 335.30697367 689.04454585 340.485646 693.84179688 346.08056641 C697.5907202 350.2851158 701.66227402 354.18357375 705.67382812 358.13525391 C710.92390728 363.30697367 716.04454585 368.485646 720.84179688 374.08056641 C724.5907202 378.2851158 728.66227402 382.18357375 732.67382812 386.13525391 C742.30293608 395.62064383 742.30293608 395.62064383 746.14257812 400.10400391 C750.5352574 405.22708185 755.37104371 409.90040138 760.17382812 414.63525391 C770.33467052 424.65237859 770.33467052 424.65237859 774.14257812 429.10400391 C778.68316648 434.40582431 783.70698332 439.23831777 788.67382812 444.13525391 C799.32965834 454.64110259 799.32965834 454.64110259 803.14257812 459.10400391 C807.83192583 464.58607468 813.04228738 469.57250496 818.17382812 474.63525391 C829.36243681 485.67387167 829.36243681 485.67387167 833.11132812 490.07275391 C838.11014238 495.92370697 843.70271615 501.23111561 849.17382812 506.63525391 C851.37479866 508.80928164 853.572186 510.98684456 855.76757812 513.16650391 C856.25633423 513.64696167 856.74509033 514.12741943 857.24865723 514.62243652 C859.97963238 517.33451538 862.56226495 520.12602253 865.078125 523.03955078 C868.58550628 527.08778432 872.30067094 530.87386215 876.11132812 534.63525391 C876.79509521 535.31523438 877.4788623 535.99521484 878.18334961 536.69580078 C880.34439867 538.84476316 882.50867538 540.99042669 884.67382812 543.13525391 C887.53098829 545.96559228 890.38466267 548.79938064 893.23632812 551.63525391 C893.87820068 552.26882813 894.52007324 552.90240234 895.18139648 553.55517578 C898.97055779 557.32406891 902.53128103 561.22239608 906.02362061 565.26687622 C908.35715471 567.90892154 910.83435084 570.33665532 913.36914062 572.78759766 C914.41996269 573.812605 915.4700673 574.83834827 916.51953125 575.86474609 C917.3240271 576.65044983 917.3240271 576.65044983 918.14477539 577.45202637 C928.29210859 587.39491514 937.5479225 597.44102956 945.67382812 609.13525391 C946.47763981 610.24620795 947.28355056 611.35564699 948.09179688 612.46337891 C960.31504147 629.54646774 973.95682437 649.30378876 971.67382812 671.13525391 C968.75249256 686.86121737 960.79661197 702.325391 948.04101562 712.16650391 C933.34206689 722.04955775 915.93551588 724.78768233 898.56835938 721.48681641 C880.91803962 716.8199522 867.95261775 706.15029075 856.09179688 692.7956543 C852.07194787 688.3727651 847.80622828 684.20285345 843.54882812 680.01025391 C838.33124688 674.87136921 833.24703041 669.72230119 828.47900391 664.16308594 C824.89802362 660.1404159 821.01076255 656.41157326 817.17382812 652.63525391 C812.07398682 647.61597881 807.1219933 642.57479766 802.4609375 637.14501953 C799.04381929 633.302162 795.33924148 629.73916704 791.67382812 626.13525391 C786.73448986 621.27879044 781.96231672 616.38503614 777.44726562 611.13134766 C774.19192692 607.46729902 770.66930865 604.06820347 767.17382812 600.63525391 C762.40525038 595.95198167 757.82406846 591.21559039 753.46484375 586.14892578 C750.20191812 582.48035837 746.675341 579.07412791 743.17382812 575.63525391 C738.40525038 570.95198167 733.82406846 566.21559039 729.46484375 561.14892578 C726.20191812 557.48035837 722.675341 554.07412791 719.17382812 550.63525391 C714.39502011 545.9419344 709.80227718 541.19533412 705.43359375 536.11767578 C702.33988807 532.63253564 698.99946335 529.39717964 695.67382812 526.13525391 C691.71515439 522.25241683 687.82324475 518.37184728 684.20507812 514.16650391 C680.41240765 509.76322208 676.31809606 505.70538467 672.17382812 501.63525391 C667.39502011 496.9419344 662.80227718 492.19533412 658.43359375 487.11767578 C655.33988807 483.63253564 651.99946335 480.39717964 648.67382812 477.13525391 C644.71515439 473.25241683 640.82324475 469.37184728 637.20507812 465.16650391 C633.41240765 460.76322208 629.31809606 456.70538467 625.17382812 452.63525391 C620.39502011 447.9419344 615.80227718 443.19533412 611.43359375 438.11767578 C608.33988807 434.63253564 604.99946335 431.39717964 601.67382812 428.13525391 C597.06579858 423.61550079 592.66365015 419.02593164 588.45117188 414.13525391 C585.34996228 410.64554113 582.0054868 407.40308771 578.67382812 404.13525391 C574.06579858 399.61550079 569.66365015 395.02593164 565.45117188 390.13525391 C562.34996228 386.64554113 559.0054868 383.40308771 555.67382812 380.13525391 C551.04451817 375.59462805 546.61236886 370.98530339 542.37939453 366.07226562 C539.66444108 362.98889307 536.77553413 360.09155707 533.86132812 357.19775391 C533.28962891 356.6221875 532.71792969 356.04662109 532.12890625 355.45361328 C529.18307184 352.42380939 529.18307184 352.42380939 525.67382812 350.13525391 C525.29532715 352.0567627 525.29532715 352.0567627 524.90917969 354.01708984 C523.7439388 359.24625822 521.91058717 364.06777782 519.90820312 369.02587891 C519.17582661 370.88761992 518.44407373 372.74960636 517.71289062 374.61181641 C516.56542489 377.51353329 515.41273165 380.41286136 514.24902344 383.30810547 C513.12019833 386.12494658 512.0128045 388.94946746 510.90820312 391.77587891 C510.37715973 393.07286713 510.37715973 393.07286713 509.83538818 394.39605713 C507.98013453 399.06052494 507.98013453 399.06052494 508.22875977 403.96118164 C509.82390673 406.36104374 511.48910268 408.27375247 513.56054688 410.27978516 C514.33462891 411.0396875 515.10871094 411.79958984 515.90625 412.58251953 C517.12151367 413.75331055 517.12151367 413.75331055 518.36132812 414.94775391 C523.45926323 419.90442593 528.40732673 424.87119837 533.03637695 430.27075195 C535.60985547 433.20107184 538.38575272 435.91107891 541.17382812 438.63525391 C545.20919543 442.6204641 549.0680582 446.65044539 552.73632812 450.97900391 C555.97749363 454.58610745 559.46645192 457.94704286 562.91381836 461.35571289 C566.37769258 464.79561912 569.64507747 468.32079241 572.80273438 472.04541016 C575.81533504 475.41021466 579.05954855 478.54070578 582.27172852 481.71362305 C585.60441875 485.02125153 588.72590928 488.43181997 591.76757812 492.01025391 C594.29633252 494.82919323 596.98028813 497.47464228 599.67382812 500.13525391 C603.55110776 503.96513403 607.23626419 507.85576692 610.76757812 512.01025391 C613.79384342 515.38379555 617.04593519 518.52728927 620.26928711 521.71118164 C623.62443706 525.04107721 626.77108264 528.4745679 629.83398438 532.07666016 C632.6314968 535.20678552 635.64007318 538.12211049 638.62719727 541.0690918 C641.85381465 544.26911162 644.85313274 547.58597662 647.79882812 551.04150391 C650.15728061 553.67510918 652.65828216 556.15351904 655.17382812 558.63525391 C658.89228317 562.30372972 662.41051007 566.06674619 665.79882812 570.04150391 C668.60983124 573.18045738 671.6265061 576.10876071 674.62475586 579.06665039 C677.8738342 582.28891839 680.89826676 585.62866036 683.86523438 589.10791016 C686.84788703 592.45131561 690.07739504 595.5460176 693.26367188 598.69384766 C695.94237345 601.40728118 698.4199093 604.24302413 700.89648438 607.13916016 C703.62360035 610.20192117 706.56787449 613.03748884 709.48632812 615.91650391 C712.07579694 618.54296513 714.46219777 621.30501849 716.86132812 624.10400391 C719.60159895 627.17499708 722.55329714 630.02312267 725.48242188 632.91259766 C728.0948388 635.5622683 730.50685433 638.34698193 732.92773438 641.17041016 C735.39742172 643.94949905 738.05286134 646.52385887 740.70117188 649.13134766 C743.24720642 651.71771542 745.59404369 654.45060671 747.95898438 657.20166016 C750.14539637 659.66697664 752.48019705 661.95470058 754.83129883 664.26147461 C756.60406836 666.06431099 758.26071077 667.92106413 759.90820312 669.83837891 C763.63755943 674.12753288 767.51175716 678.2630973 771.42382812 682.38525391 C777.90302722 689.24685396 784.36382879 696.11689423 790.67382812 703.13525391 C791.15803223 703.66650879 791.64223633 704.19776367 792.14111328 704.74511719 C803.35353525 717.09497907 812.57028084 730.08594074 817.67382812 746.13525391 C818.021875 747.13492187 818.021875 747.13492187 818.37695312 748.15478516 C822.98759302 763.27109737 820.99782387 780.33017753 813.67382812 794.13525391 C804.78775196 808.17566659 790.06551037 816.86085662 774.23632812 821.01025391 C756.2811332 824.60559869 739.15640031 820.6529018 723.67382812 811.13525391 C713.08439955 803.698353 703.96570601 794.84000741 694.90307617 785.64575195 C692.72190336 783.4331211 690.52996342 781.23161819 688.3359375 779.03173828 C686.91799065 777.60462874 685.50065095 776.17691562 684.08398438 774.74853516 C683.12130394 773.7794799 683.12130394 773.7794799 682.13917542 772.79084778 C678.39493021 768.98810689 674.84317672 765.06835405 671.35179138 761.03312683 C668.86450075 758.21985811 666.22480073 755.58023879 663.54882812 752.94775391 C662.9982373 752.40094971 662.44764648 751.85414551 661.88037109 751.29077148 C660.14731996 749.56975884 658.41103039 747.85207559 656.67382812 746.13525391 C643.71485297 733.32831142 643.71485297 733.32831142 638.40039062 727.08447266 C634.69901467 722.90576994 630.64893378 719.05102963 626.67382812 715.13525391 C621.40328246 709.9433731 616.25952955 704.74442677 611.44335938 699.12744141 C608.03394545 695.28902837 604.33319498 691.73322199 600.67382812 688.13525391 C595.74472094 683.28884987 590.98410602 678.40527772 586.47851562 673.16259766 C583.05372982 669.31527334 579.34528286 665.74510705 575.67382812 662.13525391 C570.74472094 657.28884987 565.98410602 652.40527772 561.47851562 647.16259766 C558.05372982 643.31527334 554.34528286 639.74510705 550.67382812 636.13525391 C545.74472094 631.28884987 540.98410602 626.40527772 536.47851562 621.16259766 C533.05372982 617.31527334 529.34528286 613.74510705 525.67382812 610.13525391 C517.10818979 601.71333433 517.10818979 601.71333433 513.20507812 597.16650391 C509.11180056 592.40358876 504.64735875 588.03811264 500.17382812 583.63525391 C491.07379917 574.67898528 491.07379917 574.67898528 487.39257812 570.35400391 C482.17769332 564.2790568 476.36432179 558.75898759 470.67382812 553.13525391 C457.09805876 539.71875335 457.09805876 539.71875335 452.03491211 533.72729492 C449.7016205 530.99807616 447.74450429 529.07792658 444.67382812 527.13525391 C437.23607082 526.89532625 432.06332945 529.96268066 426.72070312 534.96337891 C420.5132732 541.58811505 417.1793976 549.70394844 417.41601562 558.88134766 C418.25882446 566.24954003 421.80595712 571.66086326 426.56542969 577.1809082 C427.04834095 577.74543292 427.53125221 578.30995764 428.02879715 578.89158916 C433.42835156 585.12373267 439.23161026 590.92656734 445.09570312 596.71728516 C446.25200585 597.86728984 447.4077765 599.01782972 448.56304932 600.16886902 C451.5676989 603.16039189 454.57790637 606.14624944 457.58990479 609.13037109 C462.42316441 613.92003857 467.24937123 618.71678791 472.07236481 623.51679039 C473.73987689 625.17422086 475.41082794 626.82812152 477.08221436 628.48164368 C481.9741689 633.33497865 486.75493346 638.22581246 491.23394775 643.46928406 C493.21319774 645.75931514 495.33024122 647.88722456 497.48632812 650.01025391 C498.33453125 650.85072266 499.18273437 651.69119141 500.05664062 652.55712891 C500.9203125 653.40791016 501.78398438 654.25869141 502.67382812 655.13525391 C508.00579009 660.38763435 513.21890014 665.6474222 518.09179688 671.33056641 C520.48987043 674.06614661 523.07023223 676.59721152 525.67382812 679.13525391 C529.61873709 683.02643249 533.37389203 686.98715382 536.96679688 691.20947266 C539.59220446 694.17131691 542.42783596 696.91153016 545.26757812 699.66650391 C547.24498826 701.69527535 549.10795433 703.7547735 550.96289062 705.89306641 C554.70981235 710.21117749 558.61238632 714.365284 562.54882812 718.51025391 C567.63404999 723.88878681 572.68205793 729.28922504 577.60351562 734.81884766 C579.93487725 737.4273334 582.30539827 739.99790127 584.67382812 742.57275391 C588.73614675 747.02941163 592.55099097 751.63672925 596.33398438 756.33056641 C598.80963252 759.29803781 601.40878184 762.1281158 604.04882812 764.94775391 C609.45962201 770.76070776 614.35880826 776.89354527 619.18212891 783.19775391 C620.78765103 785.28309328 622.41506608 787.35013746 624.04492188 789.41650391 C635.08061325 803.49130294 642.34731908 814.19097965 640.28320312 832.62353516 C637.2526816 851.02035492 627.78520071 865.88536019 612.80688477 876.92993164 C597.43070766 887.69026727 582.39168689 892.93938487 563.67382812 891.13525391 C544.94254527 887.7110368 530.87475451 875.71468778 517.90454102 862.57177734 C516.48248281 861.13135894 515.05248073 859.69920916 513.62109375 858.26806641 C509.03143898 853.64962635 504.57072005 848.97980742 500.33032227 844.0390625 C497.31972475 840.578983 494.14278252 837.27428422 490.98632812 833.94775391 C486.14640355 828.82673669 481.31910868 823.69625934 476.54882812 818.51025391 C472.27693425 813.86657528 467.98269913 809.24464827 463.67382812 804.63525391 C454.25019993 794.54931992 444.87331737 784.42660173 435.67382812 774.13525391 C436.52631207 772.84247605 437.38095886 771.5511245 438.23632812 770.26025391 C439.06583984 769.00728516 439.06583984 769.00728516 439.91210938 767.72900391 C441.00258252 766.12351795 442.12023666 764.53569792 443.27929688 762.97900391 C452.58636981 750.42219291 459.53304623 736.18346128 463.67382812 721.13525391 C463.9909375 720.12720703 464.30804687 719.11916016 464.63476562 718.08056641 C472.46012717 689.29185099 464.85982496 658.23513684 450.79882812 632.76025391 C434.2340059 605.24908716 412.74053179 584.7258128 381.09179688 576.16650391 C371.22763517 573.89743157 361.74410416 573.82380207 351.67382812 574.13525391 C351.795 573.56419922 351.91617187 572.99314453 352.04101562 572.40478516 C352.60982541 569.65262089 353.14601422 566.89557796 353.67382812 564.13525391 C353.86460937 563.15814453 354.05539062 562.18103516 354.25195312 561.17431641 C359.80309767 529.69139665 350.36792192 497.32087184 332.67382812 471.13525391 C313.29102135 443.52552247 285.0844738 429.55926961 252.49023438 423.71337891 C244.70706119 422.53435165 236.97304352 421.92459884 229.11132812 421.57275391 C228.19802734 421.52957031 227.28472656 421.48638672 226.34375 421.44189453 C224.12054821 421.33713633 221.89726106 421.23496373 219.67382812 421.13525391 C219.63644531 419.86552734 219.5990625 418.59580078 219.56054688 417.28759766 C218.59005755 389.96992283 211.06938178 366.43405017 193.67382812 345.13525391 C193.02671875 344.33474609 192.37960937 343.53423828 191.71289062 342.70947266 C186.65126187 336.72848684 180.86993184 331.90411718 174.67382812 327.13525391 C173.83207031 326.47783203 172.9903125 325.82041016 172.12304688 325.14306641 C143.54794583 303.54913572 111.01591495 293.45167327 75.29882812 298.26025391 C58.64879149 300.75097354 42.76272208 305.69684132 27.67382812 313.13525391 C26.51496094 313.70630859 25.35609375 314.27736328 24.16210938 314.86572266 C7.40160768 323.51333024 -8.46992479 333.8984277 -24.37695312 344.00244141 C-30.04760912 347.60083768 -35.75101048 351.14636548 -41.45117188 354.69775391 C-48.99116307 359.4006998 -56.49829097 364.14620208 -63.94458008 368.99609375 C-70.75445665 373.42879085 -77.61830435 377.77541645 -84.48193359 382.12426758 C-90.4888861 385.93917759 -96.42388131 389.83280464 -102.27929688 393.87744141 C-104.32617188 395.13525391 -104.32617188 395.13525391 -106.32617188 395.13525391 C-106.32617188 388.20525391 -106.32617188 381.27525391 -106.32617188 374.13525391 C-103.60367187 372.92869141 -103.60367187 372.92869141 -100.82617188 371.69775391 C-88.23069449 365.85279381 -76.7396572 359.42680075 -66.32617188 350.13525391 C-65.42511719 349.37728516 -64.5240625 348.61931641 -63.59570312 347.83837891 C-37.93279112 325.68647178 -22.84241715 292.31167483 -19.78710938 258.85791016 C-17.25020728 223.92225078 -27.71176311 188.21426919 -50.65039062 161.42041016 C-54.40648959 157.19247066 -58.22754167 153.03395093 -62.32617188 149.13525391 C-62.98488281 148.49330078 -63.64359375 147.85134766 -64.32226562 147.18994141 C-76.7448499 135.48129876 -90.84057137 128.03626425 -106.32617188 121.13525391 C-107.65339965 113.99350446 -107.91400034 107.98551767 -103.73632812 101.83447266 C-100.77176582 97.9379411 -97.57102229 94.24216242 -94.36230469 90.54589844 C-90.92330922 86.47435872 -87.79832531 82.17463403 -84.63867188 77.88525391 C-79.47647095 70.95905821 -74.22261475 64.11892083 -68.86132812 57.34619141 C-62.40881977 49.19384193 -56.14062376 40.89466354 -49.82617188 32.63525391 C-47.65975172 29.80173197 -45.49309144 26.96839394 -43.32617188 24.13525391 C-42.85614746 23.52053223 -42.38612305 22.90581055 -41.90185547 22.27246094 C-40.60699052 20.5799714 -39.31058901 18.88867118 -38.01367188 17.19775391 C-37.29566406 16.26060547 -36.57765625 15.32345703 -35.83789062 14.35791016 C-35.43167229 13.87341589 -35.02545395 13.38892162 -34.60692596 12.88974571 C-33.20918271 11.10225475 -33.20918271 11.10225475 -32.22126007 8.67295265 C-25.74247273 -3.09306164 -11.61734929 -0.17407885 0 0 Z " fill="#78DBFB" transform="translate(429.326171875,828.86474609375)"/>
<path d="M0 0 C0.90395508 0.00093658 1.80791016 0.00187317 2.73925781 0.00283813 C81.79408267 0.17973551 161.35031423 23.18760893 226.125 69.1875 C226.86556641 69.71311523 227.60613281 70.23873047 228.36914062 70.78027344 C239.07191234 78.42573342 249.32738221 86.41314811 259.125 95.1875 C260.09179688 96.0434375 261.05859375 96.899375 262.0546875 97.78125 C273.73378642 108.28927396 285.40318696 119.21310001 295.1015625 131.60546875 C297.30214247 134.41354473 299.61462639 137.10492335 301.9375 139.8125 C355.83805637 204.60961946 380.71966188 291.01581838 373.10913086 374.54296875 C366.81745708 435.93727682 343.43207052 494.75182768 305.125 543.1875 C304.32320312 544.20199219 303.52140625 545.21648438 302.6953125 546.26171875 C298.37376348 551.62253302 293.86315965 556.78484731 289.22265625 561.87109375 C287.41908387 563.86274817 285.67393904 565.88771857 283.9375 567.9375 C276.05163776 576.98413169 267.31768343 585.48085187 258.125 593.1875 C257.23296875 593.96867188 256.3409375 594.74984375 255.421875 595.5546875 C230.47306803 617.28974984 201.98533822 635.0321366 172.125 649.1875 C170.92617187 649.76298584 170.92617187 649.76298584 169.703125 650.35009766 C131.94941241 668.390366 91.3140119 679.47936866 49.8125 684.5 C48.80419128 684.62223938 48.80419128 684.62223938 47.7755127 684.74694824 C32.29019312 686.59109605 16.89197181 687.39842093 1.3125 687.375 C0.1807283 687.37409363 0.1807283 687.37409363 -0.97390747 687.37316895 C-91.44598281 687.17859259 -181.51574209 656.89995677 -250.875 598.1875 C-251.85339844 597.3934375 -252.83179688 596.599375 -253.83984375 595.78125 C-261.88580181 589.17364137 -269.31363281 581.96315196 -276.6875 574.625 C-277.17536987 574.14230652 -277.66323975 573.65961304 -278.16589355 573.16229248 C-284.86698753 566.51731826 -290.98882508 559.56430506 -296.875 552.1875 C-298.43450185 550.3724197 -299.99633812 548.55933674 -301.5625 546.75 C-324.95911159 518.6088743 -342.45730243 485.48491198 -354.875 451.1875 C-355.16068848 450.40745605 -355.44637695 449.62741211 -355.74072266 448.82373047 C-362.38608614 430.49790892 -366.69279623 411.67105118 -369.6875 392.4375 C-369.7927298 391.76426697 -369.89795959 391.09103394 -370.00637817 390.3973999 C-372.3736003 375.07594538 -373.11513132 360.10025895 -373.125 344.625 C-373.12567474 343.67174835 -373.12634949 342.7184967 -373.12704468 341.73635864 C-373.10944443 326.03085507 -372.39979584 310.71807343 -369.875 295.1875 C-369.70339355 294.11870605 -369.53178711 293.04991211 -369.35498047 291.94873047 C-357.70752179 221.67885239 -323.1579339 159.5082458 -273.25 109.3125 C-272.67295319 108.73000488 -272.09590637 108.14750977 -271.50137329 107.54736328 C-264.28143272 100.27679019 -256.92216922 93.54392079 -248.875 87.1875 C-247.73550329 86.23533034 -246.59945928 85.27899461 -245.46875 84.31640625 C-187.10595085 35.49638409 -110.17765568 7.49656013 -34.875 1.1875 C-33.83230957 1.09992432 -32.78961914 1.01234863 -31.71533203 0.92211914 C-21.13912411 0.12287894 -10.60209979 -0.01427243 0 0 Z M-223.875 202.1875 C-244.86311489 227.20686867 -254.03247516 257.09242656 -254.02026367 289.46142578 C-254.02362228 290.75391739 -254.0269809 292.046409 -254.03044128 293.37806702 C-254.03920923 296.89703678 -254.04161639 300.41598216 -254.04225707 303.9349618 C-254.04297191 306.14258604 -254.04511443 308.35020426 -254.04775429 310.557827 C-254.05698534 318.28562558 -254.06109217 326.01340702 -254.06030273 333.74121094 C-254.05970321 340.90181016 -254.07023612 348.06233375 -254.0860464 355.22291386 C-254.09920131 361.40505894 -254.10448329 367.58717955 -254.10384732 373.76933849 C-254.10359457 377.44626018 -254.10632039 381.1231146 -254.11702538 384.80002213 C-254.3924767 410.76096116 -254.3924767 410.76096116 -249.6875 436.1875 C-249.47319336 436.92967773 -249.25888672 437.67185547 -249.03808594 438.43652344 C-239.84883571 469.01969992 -218.08981085 497.059691 -189.89453125 512.40234375 C-169.70566656 522.97631007 -149.16612124 528.34693107 -126.40457153 528.32794189 C-124.71642942 528.33239858 -124.71642942 528.33239858 -122.99418342 528.3369453 C-119.23846491 528.34558833 -115.48277844 528.34713683 -111.72705078 528.34863281 C-109.02752027 528.35326418 -106.32799259 528.35826925 -103.62846375 528.36367798 C-96.30357604 528.37721676 -88.97869385 528.38327939 -81.65379572 528.38768864 C-77.0713696 528.39045929 -72.48894556 528.39469817 -67.90652084 528.39919281 C-55.19478297 528.41138093 -42.48304676 528.42168032 -29.77130318 528.4250679 C-28.95887063 528.42528747 -28.14643808 528.42550703 -27.30938637 528.42573325 C-26.4951124 528.42595153 -25.68083843 528.42616981 -24.8418895 528.4263947 C-23.19211904 528.42683815 -21.54234858 528.42728472 -19.89257812 528.42773438 C-18.66508781 528.42806652 -18.66508781 528.42806652 -17.4127997 528.42840537 C-4.17303613 528.43234771 9.06667221 528.44978651 22.30641447 528.4730939 C35.93135284 528.49688375 49.55626359 528.50927325 63.18122303 528.51043582 C70.81816121 528.51134844 78.45502745 528.51699556 86.09194565 528.53525543 C92.59903175 528.55076005 99.10602368 528.55571659 105.61312477 528.54751733 C108.92494031 528.54364668 112.23641484 528.54603957 115.54823112 528.55857468 C155.75638485 528.70172917 189.72732686 519.31195503 219.125 490.5625 C232.4616388 477.16314692 242.39095297 461.03082751 248.5 443.125 C248.72655273 442.46661133 248.95310547 441.80822266 249.18652344 441.12988281 C253.1692859 428.61861847 254.5741634 416.08117793 254.52905273 403.01074219 C254.53477725 401.57286557 254.54174939 400.13499348 254.54985046 398.6971283 C254.56757137 394.8434827 254.56665345 390.9900674 254.56090808 387.13639355 C254.55778416 383.89410642 254.56394404 380.65186153 254.56994683 377.40958047 C254.58392245 369.74616135 254.58249032 362.08285386 254.57104492 354.41943359 C254.55958115 346.57136611 254.57362601 338.72364108 254.6004414 330.8756187 C254.62275552 324.08520666 254.62920046 317.29490086 254.62336498 310.50445485 C254.62003015 306.4719695 254.62217376 302.43970319 254.63961601 298.40724945 C254.7996948 257.47922722 246.01612126 223.60745829 216.57080078 193.61035156 C208.63131638 185.79689072 199.80623762 179.63675126 190.125 174.1875 C189.05894531 173.58035156 187.99289062 172.97320312 186.89453125 172.34765625 C180.1134283 168.71463861 173.34713799 166.10458096 166 163.875 C165.20134521 163.63249512 164.40269043 163.38999023 163.57983398 163.14013672 C153.07900227 160.11731567 142.78401926 158.88857974 131.87620544 158.92007446 C130.70329502 158.91554335 129.53038459 158.91101224 128.32193142 158.90634382 C125.10202838 158.89595501 121.88226764 158.8943599 118.6623534 158.89673257 C115.17544486 158.89714382 111.68856858 158.88607234 108.20167542 158.87661743 C101.382967 158.86007187 94.56429318 158.85451079 87.74556636 158.85339268 C82.19633496 158.852439 76.64711486 158.84831282 71.09788704 158.84199142 C55.32781849 158.82439551 39.55777705 158.8151498 23.78769862 158.81665237 C22.51498141 158.81677224 22.51498141 158.81677224 21.21655273 158.81689453 C20.3670256 158.81697629 19.51749846 158.81705805 18.64222807 158.81714229 C4.88854475 158.81795441 -8.86502887 158.79883113 -22.61868048 158.7706178 C-36.77708528 158.7418059 -50.93543672 158.7280821 -65.09387153 158.72980535 C-73.02812364 158.73046646 -80.96226077 158.72509766 -88.89648628 158.70344925 C-95.65421916 158.68512756 -102.41178495 158.68097922 -109.16953207 158.6944681 C-112.60896384 158.70094333 -116.04807612 158.70131606 -119.48747635 158.6837616 C-160.31030557 158.51374591 -196.39064481 170.81826491 -223.875 202.1875 Z " fill="#78DBFB" transform="translate(864.875,100.8125)"/>
<path d="M0 0 C2.68828635 -0.00349088 5.37639489 -0.01016282 8.06464547 -0.02071333 C13.89815923 -0.03723885 19.73101774 -0.0242656 25.56445503 0.00839233 C34.23831804 0.05681664 42.91177085 0.05906562 51.58574439 0.05205642 C66.17888331 0.04156192 80.77173174 0.06821254 95.36478615 0.11619568 C109.80909477 0.16356775 124.25328234 0.19433044 138.69766808 0.20301819 C139.59651352 0.20356811 140.49535897 0.20411802 141.42144215 0.2046846 C145.98641473 0.20739135 150.55138741 0.20980239 155.11636021 0.21209961 C187.43151217 0.22889305 219.74650619 0.28276428 252.06156921 0.35852051 C283.4508836 0.43202145 314.84015473 0.48867783 346.22953796 0.52258301 C347.68143663 0.52416132 347.68143663 0.52416132 349.16266659 0.52577152 C358.88323776 0.53631988 368.60380927 0.54652636 378.32438107 0.5564824 C398.12546656 0.5767709 417.92654923 0.59934091 437.72763062 0.62329102 C439.09319693 0.6249385 439.09319693 0.6249385 440.48635044 0.62661926 C501.25701319 0.70019715 562.02758813 0.82695556 622.79814148 0.96203613 C623.0787943 17.64304056 623.2902292 34.3232764 623.41988754 51.006073 C623.4816985 58.75277749 623.56591896 66.49801305 623.70341492 74.24377441 C623.82323871 80.9972187 623.90048831 87.74959921 623.92720342 94.50407696 C623.94281616 98.07936538 623.97933472 101.6516115 624.06690216 105.22592163 C624.16401897 109.22264859 624.16600891 113.21413263 624.16044617 117.21203613 C624.20358948 118.3895192 624.24673279 119.56700226 624.29118347 120.78016663 C624.23934923 124.22538768 624.0524601 126.74729099 622.79814148 129.96203613 C619.16365239 133.37793212 615.14341476 135.57041403 610.79814148 137.96203613 C584.50224713 157.34843475 567.45624583 183.60172394 558.79814148 214.96203613 C558.60607117 215.64314453 558.41400085 216.32425293 558.21611023 217.02600098 C549.38496305 250.10066957 557.13346972 286.90894794 573.55595398 316.16906738 C576.59979213 321.40690822 579.99080713 326.24978957 583.79814148 330.96203613 C584.24028992 331.51488281 584.68243835 332.06772949 585.13798523 332.6373291 C591.66648546 340.7426656 598.39936888 347.73184818 606.79814148 353.96203613 C608.26187195 355.06031738 608.26187195 355.06031738 609.75517273 356.18078613 C614.82166734 360.06565375 614.82166734 360.06565375 620.41730022 363.04437733 C622.79814148 364.96203613 622.79814148 364.96203613 623.41338062 368.64206219 C623.43445879 370.21828725 623.42754011 371.79502448 623.39941406 373.37113953 C623.40368619 374.2394159 623.40795831 375.10769228 623.41235989 376.00228006 C623.42062169 378.92322161 623.39305257 381.84273971 623.36576843 384.7635498 C623.36435865 386.85263536 623.36514857 388.94172339 623.36798096 391.0308075 C623.36941924 396.71248248 623.33996252 402.3936328 623.30511117 408.07518554 C623.27391636 414.0089032 623.27092236 419.94263206 623.26498413 425.87641907 C623.24942547 437.11746356 623.20836951 448.35826575 623.15823668 459.59920341 C623.1024062 472.39464225 623.07487254 485.19009249 623.04975951 497.98562276 C622.99745554 524.31122837 622.90947388 550.63661869 622.79814148 576.96203613 C621.68273378 576.01812433 620.56905636 575.07216766 619.45610046 574.12536621 C618.52555092 573.33553093 618.52555092 573.33553093 617.57620239 572.52973938 C615.15093609 570.39139989 613.0132333 568.06029942 610.86064148 565.64953613 C609.91128647 564.59640069 608.96068809 563.54438522 608.00907898 562.49328613 C607.49828796 561.92867676 606.98749695 561.36406738 606.46122742 560.78234863 C603.34187814 557.36809904 600.16059707 554.01199059 596.98564148 550.64953613 C590.13707731 543.388554 583.31654979 536.10219024 576.51152039 528.80041504 C573.62891221 525.70750545 570.74501358 522.61580072 567.86064148 519.52453613 C567.28555847 518.90820312 566.71047546 518.29187012 566.1179657 517.65686035 C561.22137999 512.41120031 556.31340596 507.17627154 551.40385437 501.94274902 C546.6167255 496.83850151 541.8405133 491.72417296 537.06767273 486.60656738 C532.81832798 482.05165178 528.56007667 477.50517117 524.29814148 472.96203613 C518.87894054 467.18527967 513.4699864 461.3991159 508.06767273 455.60656738 C503.81832798 451.05165178 499.56007667 446.50517117 495.29814148 441.96203613 C489.87894054 436.18527967 484.4699864 430.3991159 479.06767273 424.60656738 C474.81832798 420.05165178 470.56007667 415.50517117 466.29814148 410.96203613 C460.87894054 405.18527967 455.4699864 399.3991159 450.06767273 393.60656738 C445.81832793 389.05165172 441.56005861 384.50518816 437.29814148 379.96203613 C429.53986568 371.69127973 421.80288452 363.40077528 414.06864929 355.10754395 C406.85765472 347.37595868 399.63721112 339.65341969 392.40385437 331.94274902 C387.6167255 326.83850151 382.8405133 321.72417296 378.06767273 316.60656738 C373.81832798 312.05165178 369.56007667 307.50517117 365.29814148 302.96203613 C359.87894054 297.18527967 354.4699864 291.3991159 349.06767273 285.60656738 C344.81832798 281.05165178 340.56007667 276.50517117 336.29814148 271.96203613 C330.87894054 266.18527967 325.4699864 260.3991159 320.06767273 254.60656738 C315.81832798 250.05165178 311.56007667 245.50517117 307.29814148 240.96203613 C301.87894054 235.18527967 296.4699864 229.3991159 291.06767273 223.60656738 C286.81832793 219.05165172 282.56005861 214.50518816 278.29814148 209.96203613 C270.53986568 201.69127973 262.80288452 193.40077528 255.06864929 185.10754395 C247.85765472 177.37595868 240.63721112 169.65341969 233.40385437 161.94274902 C228.6167255 156.83850151 223.8405133 151.72417296 219.06767273 146.60656738 C214.81832798 142.05165178 210.56007667 137.50517117 206.29814148 132.96203613 C200.88531741 127.19207728 195.48116057 121.41417264 190.08744812 115.62634277 C186.98777923 112.30178647 183.88044594 108.98476529 180.76298523 105.67687988 C180.09073914 104.96273926 179.41849304 104.24859863 178.72587585 103.51281738 C177.43824696 102.14558042 176.14927291 100.77960849 174.85868835 99.41516113 C174.27023132 98.78996582 173.68177429 98.16477051 173.07548523 97.52062988 C172.56235779 96.97720947 172.04923035 96.43378906 171.52055359 95.87390137 C169.79814148 93.96203613 169.79814148 93.96203613 167.68331909 90.89900208 C165.42284382 88.20143335 164.85642058 87.9751528 161.17372131 87.14630127 C159.7543958 87.08666229 158.33346528 87.05954086 156.91288757 87.05871582 C156.13313065 87.03535156 155.35337372 87.0119873 154.54998779 86.98791504 C151.97334816 86.92078597 149.3990162 86.89926582 146.82157898 86.88391113 C145.01335384 86.85951694 143.20513644 86.83454389 141.39692688 86.809021 C137.59884096 86.76405772 133.80155667 86.74496314 130.0032196 86.74035645 C126.13931356 86.73194698 122.28085273 86.67688362 118.41825867 86.57629395 C91.67984419 84.96249531 91.67984419 84.96249531 68.56962585 96.25160217 C67.26054411 97.52503295 65.96843336 98.8161878 64.69554138 100.12579346 C61.56526368 103.15517566 57.9764749 105.41117124 54.32157898 107.75500488 C52.96648976 108.65392495 51.61231331 109.5542226 50.25907898 110.45593262 C48.89728678 111.354084 47.53530424 112.25194685 46.17314148 113.14953613 C44.71984386 114.11159639 43.26672101 115.07392069 41.81376648 116.03649902 C38.3887077 118.30351563 34.95953732 120.56420641 31.52848816 122.82214355 C29.27432559 124.30710793 27.02482498 125.79908223 24.77470398 127.29016113 C5.72573147 139.84081442 -14.01252671 151.3520379 -34.20185852 161.96203613 C-35.54860657 162.67335693 -35.54860657 162.67335693 -36.92256165 163.39904785 C-55.53412704 173.1671264 -74.89527917 181.41328081 -95.20185852 186.96203613 C-96.08744446 187.20695801 -96.9730304 187.45187988 -97.88545227 187.70422363 C-114.99758339 191.60183852 -135.11699228 190.20434984 -150.20185852 180.96203613 C-161.71628867 173.54499793 -168.87926971 161.97999058 -172.45185852 148.83703613 C-175.73264103 131.88632649 -174.90670073 114.17442729 -166.45185852 98.77453613 C-159.03633549 89.50513235 -149.76336813 82.84849993 -140.20185852 75.96203613 C-139.50705383 75.46026855 -138.81224915 74.95850098 -138.09638977 74.44152832 C-114.04265674 57.15707598 -89.12024418 40.96506941 -64.20185852 24.96203613 C-63.20090149 24.31798828 -62.19994446 23.67394043 -61.1686554 23.01037598 C-57.86864043 20.88787981 -54.56690708 18.76808772 -51.26435852 16.64953613 C-50.25735901 16.00307129 -49.2503595 15.35660645 -48.21284485 14.69055176 C-46.27280496 13.44907903 -44.3224988 12.22346192 -42.36092108 11.01630735 C-39.22813584 9.06680207 -39.22813584 9.06680207 -36.68989688 6.87239885 C-25.70971369 -1.53798921 -13.25840481 -0.12786164 0 0 Z " fill="#78DBFB" transform="translate(802.2018585205078,829.0379638671875)"/>
<path d="M0 0 C15.25045991 13.06116061 26.08853589 31.42172476 28.40625 51.5234375 C29.52134867 69.88274065 24.87244405 87.87433354 12.69555664 101.95849609 C4.67288734 110.90026731 -5.35033672 116.84734541 -15.5 123.125 C-17.62764986 124.44784317 -19.75525271 125.77076197 -21.8828125 127.09375 C-22.96079102 127.76277344 -24.03876953 128.43179687 -25.14941406 129.12109375 C-30.23136034 132.27827018 -35.30281553 135.45217432 -40.375 138.625 C-42.3775677 139.87636044 -44.38017194 141.12766241 -46.3828125 142.37890625 C-50.35831222 144.86343187 -54.33213295 147.35061199 -58.3046875 149.83984375 C-68.73891232 156.37485065 -79.19527818 162.87095628 -89.6875 169.3125 C-97.91444747 174.36398596 -106.11317508 179.45448433 -114.26611328 184.62451172 C-121.52197302 189.22529861 -128.80439742 193.78295593 -136.09521484 198.328125 C-141.34667118 201.60263155 -146.58932568 204.8898189 -151.81640625 208.203125 C-152.8731958 208.87045654 -153.92998535 209.53778809 -155.01879883 210.2253418 C-157.01756991 211.48794678 -159.01372445 212.75470845 -161.0065918 214.02661133 C-179.1017653 225.43089296 -196.30684945 231.5801045 -217.9609375 227.9140625 C-239.00675872 223.04992533 -253.08057327 210.59434564 -264.5078125 192.8046875 C-274.7025517 176.31223789 -277.4012215 157.60060949 -273.3125 138.5625 C-264.99375412 111.9425132 -245.02788283 99.93517009 -222.56835938 86.09667969 C-217.49024004 82.96129041 -212.43338137 79.79209493 -207.375 76.625 C-205.37510984 75.37482428 -203.37510962 74.1248246 -201.375 72.875 C-200.385 72.25625 -199.395 71.6375 -198.375 71 C-181.875 60.6875 -181.875 60.6875 -165.375 50.375 C-164.38516113 49.75633057 -163.39532227 49.13766113 -162.37548828 48.50024414 C-160.37393381 47.24931331 -158.37230611 45.99849965 -156.37060547 44.74780273 C-151.39378404 41.63799731 -146.41822032 38.52621669 -141.4453125 35.41015625 C-129.9172265 28.19005866 -118.35937508 21.02165227 -106.76123047 13.91455078 C-100.9748427 10.36303843 -95.22431587 6.76544054 -89.51318359 3.09423828 C-60.88848317 -15.26513306 -29.10624575 -22.36538209 0 0 Z " fill="#78DBFB" transform="translate(695.375,1323.875)"/>
<path d="M0 0 C1.0098999 0.01087646 2.0197998 0.02175293 3.06030273 0.03295898 C22.109438 0.44028738 36.49509093 7.9663529 49.5625 21.375 C50.43455078 22.23351563 50.43455078 22.23351563 51.32421875 23.109375 C64.67646185 37.30299232 70.94419929 56.44637135 70.78125 75.61328125 C69.70818672 94.06613723 61.89830962 109.611947 48.79394531 122.41113281 C45.01489108 125.73703131 40.85052799 128.32126702 36.5625 130.9375 C35.60972168 131.53119385 34.65694336 132.1248877 33.67529297 132.73657227 C31.66097876 133.99063471 29.64383212 135.24015791 27.62402344 136.48535156 C24.6191551 138.34003106 21.62438491 140.20990019 18.6328125 142.0859375 C13.62485428 145.22622092 8.6108517 148.35666888 3.59472656 151.48388672 C-1.41840541 154.61043424 -6.42777243 157.74300161 -11.4375 160.875 C-13.43748171 162.12502926 -15.43748172 163.37502926 -17.4375 164.625 C-18.9225 165.553125 -18.9225 165.553125 -20.4375 166.5 C-31.4375 173.375 -42.4375 180.25 -53.4375 187.125 C-54.4277417 187.74391113 -55.4179834 188.36282227 -56.43823242 189.00048828 C-58.43575443 190.24891921 -60.43331295 191.49729173 -62.4309082 192.74560547 C-67.46912434 195.89413118 -72.50667728 199.04370893 -77.54296875 202.1953125 C-88.02906486 208.75584012 -98.51574968 215.31519447 -109.05175781 221.79541016 C-113.00233114 224.22833899 -116.93137129 226.68197229 -120.80859375 229.23046875 C-138.04356858 240.4911137 -156.8712638 245.79022583 -177.57421875 241.69140625 C-198.95937509 235.92004827 -212.63893381 223.15889487 -223.6875 204.4375 C-232.76762609 188.54237411 -235.25120838 170.16666927 -230.8125 152.375 C-225.03123433 133.8509446 -214.79282542 121.49865398 -198.4375 111.375 C-196.66350484 110.256092 -194.89011694 109.13622088 -193.1171875 108.015625 C-187.96080609 104.7683789 -182.78549979 101.55242002 -177.60595703 98.34228516 C-173.56805154 95.83516215 -169.54084468 93.31117764 -165.51367188 90.78686523 C-156.07874506 84.87442558 -146.61382675 79.01302422 -137.125 73.1875 C-128.89805253 68.13601404 -120.69932492 63.04551567 -112.54638672 57.87548828 C-106.29657878 53.91261752 -100.02685201 49.98238552 -93.75 46.0625 C-92.23575439 45.11685181 -92.23575439 45.11685181 -90.69091797 44.15209961 C-88.63337228 42.8673985 -86.57575468 41.58281255 -84.51806641 40.29833984 C-80.48557977 37.78067225 -76.45423569 35.26118041 -72.42333984 32.7409668 C-70.43857338 31.50060947 -68.4532248 30.26118314 -66.46728516 29.02270508 C-61.29166171 25.79356057 -56.12798546 22.54723027 -50.98046875 19.2734375 C-49.38428711 18.26313477 -49.38428711 18.26313477 -47.75585938 17.23242188 C-45.73924555 15.95552666 -43.72594631 14.67337389 -41.71679688 13.38476562 C-28.52176423 5.05154543 -15.76124662 -0.23203652 0 0 Z " fill="#78DBFB" transform="translate(771.4375,1454.625)"/>
<path d="M0 0 C12.95674459 10.93687186 21.76893291 25.6314114 24 42.5625 C25.24269627 63.21977896 20.98323686 81.07575699 7.23828125 97.25390625 C-2.59688125 107.39802674 -15.87504397 114.2391378 -27.80664062 121.59082031 C-32.88475996 124.72620959 -37.94161863 127.89540507 -43 131.0625 C-44.99989016 132.31267572 -46.99989038 133.5626754 -49 134.8125 C-50.485 135.740625 -50.485 135.740625 -52 136.6875 C-71 148.5625 -90 160.4375 -109 172.3125 C-109.99080566 172.93181396 -110.98161133 173.55112793 -112.00244141 174.18920898 C-113.99408379 175.43386382 -115.98594435 176.67816963 -117.97802734 177.92211914 C-123.10778185 181.12601148 -128.23312071 184.3366545 -133.3515625 187.55859375 C-180.36905413 217.12936606 -180.36905413 217.12936606 -210.46875 210.4609375 C-227.31310962 206.17531503 -241.40964683 195.32594256 -250.3984375 180.48828125 C-259.49259764 163.87480333 -261.83029609 145.61381944 -256.90454102 127.26464844 C-251.40595646 108.928374 -238.29667144 95.71003869 -222.3125 85.9375 C-221.49289795 85.42807861 -220.6732959 84.91865723 -219.82885742 84.39379883 C-217.22343168 82.77647642 -214.61196829 81.16922975 -212 79.5625 C-210.31207671 78.51761056 -208.62457402 77.47204136 -206.9375 76.42578125 C-203.46274897 74.27179528 -199.98587047 72.12129779 -196.5078125 69.97265625 C-187.6669699 64.50541828 -178.85997434 58.98385912 -170.04833984 53.46972656 C-165.03341404 50.33208437 -160.01662235 47.19742867 -155 44.0625 C-152.99999085 42.81251463 -150.99999086 41.56251463 -149 40.3125 C-145 37.8125 -141 35.3125 -137 32.8125 C-136.0097583 32.19358887 -135.0195166 31.57467773 -133.99926758 30.93701172 C-132.00174557 29.68858079 -130.00418705 28.44020827 -128.0065918 27.19189453 C-121.95129827 23.407768 -115.89743047 19.62137313 -109.84448242 15.83349609 C-106.84815808 13.95979814 -103.85001054 12.08904708 -100.8515625 10.21875 C-96.96369711 7.7931978 -93.08458925 5.3544295 -89.2109375 2.90625 C-87.36987515 1.74986708 -85.52873288 0.59361137 -83.6875 -0.5625 C-82.87063721 -1.08279785 -82.05377441 -1.6030957 -81.2121582 -2.13916016 C-54.97903585 -18.54793661 -25.12963259 -18.49161643 0 0 Z " fill="#78DBFB" transform="translate(567,1193.4375)"/>
<path d="M0 0 C12.17864452 10.65860318 20.58259641 25.42973795 22.38232422 41.62866211 C22.53437388 44.57219402 22.58145477 47.49015293 22.5625 50.4375 C22.55677979 51.48260742 22.55105957 52.52771484 22.54516602 53.60449219 C22.15120966 70.84306712 15.5305422 85.84964198 3.58984375 98.40625 C-1.173146 102.82324204 -6.46842103 106.29177431 -11.9375 109.75 C-12.79327637 110.29285645 -13.64905273 110.83571289 -14.53076172 111.39501953 C-20.61468004 115.24283378 -26.72760168 119.04227309 -32.84960938 122.82910156 C-35.82262808 124.67854109 -38.78050152 126.5498578 -41.734375 128.4296875 C-61.4446267 140.92339893 -80.16278498 148.62085883 -104.0234375 144.09765625 C-116.95113577 140.71321389 -127.59692661 134.20629731 -136.9375 124.75 C-137.57300781 124.13640625 -138.20851563 123.5228125 -138.86328125 122.890625 C-148.33244516 113.0645303 -154.10844573 98.26609694 -154.9375 84.75 C-154.99035156 83.95335937 -155.04320312 83.15671875 -155.09765625 82.3359375 C-155.75470946 62.96715149 -148.57862281 45.84516211 -135.5625 31.8125 C-128.80872903 25.2923181 -120.89891192 20.6324217 -112.9375 15.75 C-111.22576734 14.68487056 -109.51485054 13.61842904 -107.8046875 12.55078125 C-104.26429375 10.34388887 -100.71579185 8.15099488 -97.16015625 5.96875 C-93.77575006 3.89066075 -90.40986535 1.78732899 -87.05859375 -0.34375 C-58.78762365 -18.21074352 -27.62430317 -21.19019072 0 0 Z " fill="#78DBFB" transform="translate(849.9375,1666.25)"/>
<path d="M0 0 C16.12652661 12.56756901 26.07726764 30.50190087 28.61328125 50.765625 C30.52971228 71.6600466 25.14245424 90.49292623 11.89453125 106.83203125 C11.06308594 107.90904297 11.06308594 107.90904297 10.21484375 109.0078125 C-0.9380146 122.74877434 -18.86621928 131.38410947 -36.28125 133.3671875 C-54.96683554 135.04545737 -74.61749331 131.31009256 -89.73339844 119.56738281 C-93.38342109 116.50913637 -96.75461623 113.21253733 -100.10546875 109.83203125 C-100.77320313 109.1978125 -101.4409375 108.56359375 -102.12890625 107.91015625 C-115.32879396 94.41162855 -119.75224694 74.53775833 -119.57641602 56.32226562 C-119.01281282 38.22716457 -112.1979331 22.28429079 -100.10546875 8.83203125 C-99.58726562 8.22101563 -99.0690625 7.61 -98.53515625 6.98046875 C-73.21261578 -20.88705066 -29.23131399 -20.40676637 0 0 Z " fill="#78DBFB" transform="translate(320.10546875,1017.16796875)"/>
<path d="M0 0 C2.20848741 1.65347487 4.25924949 3.38342651 6.30078125 5.23828125 C7.04585937 5.89183594 7.7909375 6.54539062 8.55859375 7.21875 C21.54460488 19.3023434 29.92696756 37.05680129 30.63671875 54.83984375 C30.9659272 76.54076357 26.75944304 95.24502235 11.36010742 111.23413086 C10.01962785 112.58153082 8.66072309 113.91052738 7.30078125 115.23828125 C6.33398438 116.23601562 6.33398438 116.23601562 5.34765625 117.25390625 C-7.8816682 130.02308029 -26.70603171 135.21130918 -44.65917969 135.27734375 C-63.93069702 134.90833432 -81.77765798 127.29533665 -95.8359375 114.23046875 C-110.7242713 98.31212443 -118.15830761 78.92894012 -117.69921875 57.23828125 C-116.32767442 36.87612319 -108.00363096 20.41721616 -93.69921875 6.23828125 C-93.065 5.57054687 -92.43078125 4.9028125 -91.77734375 4.21484375 C-67.4523252 -19.57201067 -26.77034796 -17.47239787 0 0 Z " fill="#78DBFB" transform="translate(1535.69921875,1015.76171875)"/>
<path d="M0 0 C14.21038723 11.63110462 21.86858642 29.14332915 23.66772461 47.11181641 C25.25003992 68.31259713 18.49521036 86.02259536 5.13671875 102.265625 C-7.04595542 115.51787014 -24.98970018 123.18273251 -42.75 124.21875 C-60.5902792 124.79151343 -76.91403063 120.14668202 -91 109 C-91.83402344 108.35417969 -92.66804687 107.70835937 -93.52734375 107.04296875 C-106.04378931 96.64795464 -114.43670756 81.03037629 -117 65 C-118.86372564 42.82228137 -114.74610001 23.62972185 -100.0859375 6.2734375 C-72.98185837 -23.26696335 -30.79024693 -23.90295485 0 0 Z " fill="#78DBFC" transform="translate(1027,395)"/>
<path d="M0 0 C15.76436674 12.70734521 25.821962 29.51668625 28.26367188 49.72021484 C29.44678153 69.94683958 24.18735018 89.14607424 10.75585938 104.60693359 C-2.90528355 118.87134636 -20.06296772 127.33012999 -39.91479492 128.12475586 C-59.70507915 128.43040606 -76.83672086 121.76985017 -91.36132812 108.28271484 C-92.14507813 107.43708984 -92.92882812 106.59146484 -93.73632812 105.72021484 C-94.55037109 104.86169922 -94.55037109 104.86169922 -95.38085938 103.98583984 C-109.34693399 88.77225094 -113.69057729 70.42563326 -112.91552734 50.19335938 C-111.84410934 35.40662322 -105.49061806 21.75950105 -95.73632812 10.72021484 C-95.01832031 9.89650391 -94.3003125 9.07279297 -93.56054688 8.22412109 C-84.57773653 -1.43497285 -73.38347489 -7.60553762 -60.73632812 -11.27978516 C-59.97578125 -11.50408203 -59.21523438 -11.72837891 -58.43164062 -11.95947266 C-38.72556042 -16.80305466 -16.29570049 -12.01097609 0 0 Z " fill="#78DBFC" transform="translate(778.736328125,391.27978515625)"/>
<path d="M0 0 C0 74.91 0 149.82 0 227 C-5.35312863 226.33085892 -9.23986525 225.79997303 -14.16015625 224.1796875 C-15.27680664 223.81254639 -16.39345703 223.44540527 -17.54394531 223.06713867 C-18.70506836 222.67373291 -19.86619141 222.28032715 -21.0625 221.875 C-22.86025879 221.2703894 -22.86025879 221.2703894 -24.69433594 220.65356445 C-33.44301803 217.65619916 -41.83159528 214.34872324 -50 210 C-50.92848755 209.51394287 -50.92848755 209.51394287 -51.87573242 209.01806641 C-55.75358929 206.91807921 -57.95625481 205.46367482 -59.44921875 201.16796875 C-73.5405536 145.70207624 -63.6081236 77.47897342 -61 21 C-54.23030148 17.82127395 -47.33620737 15.28011239 -40.25390625 12.890625 C-39.16158188 12.51895203 -38.06925751 12.14727905 -36.9438324 11.76434326 C-34.65277926 10.9858819 -32.36102419 10.20948356 -30.06860352 9.43505859 C-26.54708742 8.24479057 -23.02830347 7.046696 -19.50976562 5.84765625 C-17.27880283 5.09068297 -15.04768839 4.33415644 -12.81640625 3.578125 C-11.76127335 3.21881897 -10.70614044 2.85951294 -9.61903381 2.48931885 C-8.6471965 2.16187683 -7.67535919 1.83443481 -6.67407227 1.49707031 C-5.8174147 1.20713196 -4.96075714 0.9171936 -4.07814026 0.61846924 C-2 0 -2 0 0 0 Z " fill="#78DBFB" transform="translate(461,329)"/>
<path d="M0 0 C20 6.66666667 40 13.33333333 60 20 C65.20710653 124.80912527 65.20710653 124.80912527 62.1875 174.625 C62.11748779 175.80545898 62.04747559 176.98591797 61.9753418 178.20214844 C61.53574899 184.19253183 60.77500425 190.10961597 59.73828125 196.0234375 C59.52856689 197.23692871 59.31885254 198.45041992 59.1027832 199.70068359 C57.10021271 205.69199148 52.70240985 208.50995647 47.25 211.25 C33.83611037 217.87091038 15.11869347 227 0 227 C0 152.09 0 77.18 0 0 Z " fill="#78DBFB" transform="translate(1272,329)"/>
</svg>
